inDegrees=yes
name=ik_S48_A01_T01
DataType=double
version=3
OpenSimVersion=4.3-2021-08-27-4bc7ad9
endheader
time	pelvis_tilt	pelvis_list	pelvis_rotation	pelvis_tx	pelvis_ty	pelvis_tz	hip_flexion_r	hip_adduction_r	hip_rotation_r	knee_angle_r	knee_angle_r_beta	ankle_angle_r	subtalar_angle_r	mtp_angle_r	hip_flexion_l	hip_adduction_l	hip_rotation_l	knee_angle_l	knee_angle_l_beta	ankle_angle_l	subtalar_angle_l	mtp_angle_l	lumbar_extension	lumbar_bending	lumbar_rotation	arm_flex_r	arm_add_r	arm_rot_r	elbow_flex_r	pro_sup_r	wrist_flex_r	wrist_dev_r	arm_flex_l	arm_add_l	arm_rot_l	elbow_flex_l	pro_sup_l	wrist_flex_l	wrist_dev_l
36.24000000000007	1.681910679369037	2.306164141313756	-78.96698546785085	0	0.9399999999999999	0	-2.055071162150696	-8.066885895462542	-13.49832863367224	29.11070115110258	0.5080775826508434	0	0	0	2.915223764348082	2.285803511265397	-6.544266253974786	-7.221247530330559	-0.1260345455057773	0	0	0	0	0	0	41.64329404196532	-41.64329404196532	4.94930988693413	84.29456022847668	85.05069038543503	0	0	41.64329404196532	-41.64329404196532	4.94930988693413	84.29456022847668	85.0506903854258	0	0
36.26000000000007	1.596368060268276	2.187095220037149	-78.75823189853688	0	0.9399999999999999	0	1.700294426269302	-8.673178549372208	-15.44956378173436	30.66805142824294	0.5352584725937888	0	0	0	0.9911350943343844	2.141740751683592	-6.358914472413226	-7.664331667146271	-0.1337678225565685	0	0	0	0	0	0	41.66017321435119	-41.66017321435119	4.949754419137382	84.3007468543386	85.05024585324955	0	0	41.66017321435119	-41.66017321435119	4.949754419137382	84.3007468543386	85.05024585324037	0	0
36.28000000000007	1.331537967329472	1.855927158320415	-78.2320434740069	0	0.9399999999999999	0	2.564884996127081	-8.601421277228358	-16.18051512229643	31.86255579115582	0.5561065066560559	0	0	0	0.1686854743577521	1.835824025948074	-5.657484825920122	-7.958342123169714	-0.1388992730494676	0	0	0	0	0	0	41.66118258754272	-41.66118258754272	4.949784815689911	84.30116989762115	85.0502154566983	0	0	41.66118258754272	-41.66118258754272	4.949784815689911	84.30116989762115	85.05021545668913	0	0
36.30000000000008	1.225671835974731	1.667147321889456	-77.99059998105389	0	0.9399999999999999	0	3.719694647602537	-8.418694085264992	-15.65284936438744	30.192137472422	0.5269522071085225	0	0	0	-0.5579480605452887	1.689126535465128	-5.39148588373211	-7.974904514202782	-0.1391883413049974	0	0	0	0	0	0	41.66546668892394	-41.66546668892394	4.949901434108595	84.30279290381391	85.0500988382843	0	0	41.66546668892394	-41.66546668892394	4.949901434108595	84.30279290381391	85.05009883827519	0	0
36.32000000000008	1.15261217781143	1.484273021274878	-77.69737863062596	0	0.9399999999999999	0	4.929983849729761	-8.171010245027835	-14.62507761076655	28.18263294327422	0.4918797367411554	0	0	0	-1.256134046733607	1.498268958354015	-5.408840844246536	-7.81864513803377	-0.1364611007037358	0	0	0	0	0	0	41.67085156699086	-41.67085156699086	4.950045602184041	84.30479932018308	85.04995467021462	0	0	41.67085156699086	-41.67085156699086	4.950045602184041	84.30479932018308	85.04995467020555	0	0
36.34000000000008	1.126874542983087	1.411370074900588	-77.52902499546133	0	0.9399999999999999	0	6.017960457591128	-8.042856113549188	-13.78929633664025	29.07441768234569	0.5074443166569912	0	0	0	-1.835736486529614	1.377161491941549	-5.74796930241901	-7.562433861830746	-0.1319893703532564	0	0	0	0	0	0	41.67213045543991	-41.67213045543991	4.950084218455476	84.30533676118591	85.04991605394477	0	0	41.67213045543991	-41.67213045543991	4.950084218455476	84.30533676118591	85.04991605393569	0	0
36.36000000000008	0.9810367534111322	1.249771209266858	-76.80725772847725	0	0.9399999999999999	0	7.008825348840971	-7.279324188973047	-12.90022682753477	23.03275522395091	0.4019974144638672	0	0	0	-2.460433302234022	1.126464279933257	-5.45129124116884	-7.348007448704593	-0.1282469234409635	0	0	0	0	0	0	41.67982296163655	-41.67982296163655	4.950289900717769	84.30819928202716	85.04971037169074	0	0	41.67982296163655	-41.67982296163655	4.950289900717769	84.30819928202716	85.04971037168168	0	0
36.38000000000009	0.9255825549996159	1.252464983015094	-76.51590225731582	0	0.9399999999999999	0	7.738498596016243	-6.858879919368715	-12.14792733903877	19.89498399917873	0.3472329754172577	0	0	0	-2.89197319465272	1.007837590806683	-5.451497410979519	-7.09129042235712	-0.123766366085271	0	0	0	0	0	0	41.68133273793497	-41.68133273793497	4.950335343063053	84.30883172420273	85.04966492934729	0	0	41.68133273793497	-41.68133273793497	4.950335343063053	84.30883172420273	85.04966492933823	0	0
36.40000000000009	0.8281958581162768	1.282602775929945	-75.834653865696	0	0.9399999999999999	0	7.790486947681694	-6.842561240650283	-12.61913066090831	16.34223199866588	0.2852257555014931	0	0	0	-3.238438153257839	0.8397877835655371	-4.886970491065825	-6.893573494318099	-0.1203155547040614	0	0	0	0	0	0	41.6830624195477	-41.6830624195477	4.950387252182726	84.30955416709651	85.04961302022971	0	0	41.6830624195477	-41.6830624195477	4.950387252182726	84.30955416709651	85.04961302022066	0	0
36.42000000000009	0.8047714983362296	1.38020422459495	-75.08128527008276	0	0.9399999999999999	0	7.80669247375298	-6.937306663644959	-13.35881969750075	16.33955613101555	0.2851790528006473	0	0	0	-3.517471089286357	0.7976590554976403	-4.182306572048279	-6.771162396927902	-0.1181790780136231	0	0	0	0	0	0	41.68327381690645	-41.68327381690645	4.950393538191697	84.30964165222936	85.04960673422099	0	0	41.68327381690645	-41.68327381690645	4.950393538191697	84.30964165222936	85.04960673421192	0	0
36.4400000000001	0.9314221389824361	1.436186090596602	-73.71251589557276	0	0.9399999999999999	0	7.805268297429024	-7.238583557645987	-14.25930779912722	9.710277330444098	0.1694763106980149	0	0	0	-3.875883791223484	0.7915772893534128	-2.959188743285034	-6.514013434935594	-0.1136909819587715	0	0	0	0	0	0	41.68330409281527	-41.68330409281527	4.950408196703748	84.30984568791339	85.0495920757096	0	0	41.68330409281527	-41.68330409281527	4.950408196703748	84.30984568791339	85.04959207570052	0	0
36.4600000000001	1.025608345868416	1.456226304735767	-73.19869380486658	0	0.9399999999999999	0	7.728537003001213	-7.407938355271551	-14.7650568522495	9.713208595207886	0.1695274709193907	0	0	0	-4.296579354570823	0.7560810146328836	-2.911778651450265	-6.345871758279745	-0.1107563560913033	0	0	0	0	0	0	41.68356924950761	-41.68356924950761	4.950416146199395	84.30995632464909	85.04958412621428	0	0	41.68356924950761	-41.68356924950761	4.950416146199395	84.30995632464909	85.0495841262052	0	0
36.4800000000001	1.38193262769796	1.510052779215359	-71.52923673882714	0	0.9399999999999999	0	10.2167704641562	-8.264457504557781	-10.22204661478079	5.087732643680631	0.08879768609342249	0	0	0	-4.746540188915392	0.8360513635775636	-1.878045816589194	-6.037429809617231	-0.1053730285358751	0	0	0	0	0	0	41.69144648372395	-41.69144648372395	4.950625621588602	84.31287163254623	85.04937465083349	0	0	41.69144648372395	-41.69144648372395	4.950625621588602	84.31287163254623	85.04937465082449	0	0
36.50000000000011	1.511506216504235	1.559618320425406	-70.88163464795451	0	0.9399999999999999	0	10.72568255267134	-8.898456455536371	-8.719644486849667	2.677869008438222	0.04673763113436279	0	0	0	-5.096363707599224	0.8058359186225938	-1.866845318078078	-5.795648482252204	-0.1011531483035131	0	0	0	0	0	0	41.69260729402555	-41.69260729402555	4.950662223679441	84.31338104372432	85.04933804874418	0	0	41.69260729402555	-41.69260729402555	4.950662223679441	84.31338104372432	85.04933804873515	0	0
